<?xml version="1.0" encoding="utf-8"?>
<!-- Generator: Adobe Illustrator 16.0.0, SVG Export Plug-In . SVG Version: 6.00 Build 0)  -->
<!DOCTYPE svg PUBLIC "-//W3C//DTD SVG 1.1//EN" "http://www.w3.org/Graphics/SVG/1.1/DTD/svg11.dtd">
<svg version="1.1" id="图层_1" xmlns="http://www.w3.org/2000/svg" xmlns:xlink="http://www.w3.org/1999/xlink" x="0px" y="0px"
	 width="200px" height="200px" viewBox="0 0 200 200" enable-background="new 0 0 200 200" xml:space="preserve">
<path fill="#2C2C2C" d="M69.813,149.688c2.375,0,4.625,0.438,6.75,1.313s4,2.094,5.625,3.656s2.875,3.406,3.75,5.531
	s1.313,4.375,1.313,6.75s-0.438,4.625-1.313,6.75s-2.125,3.969-3.75,5.531s-3.5,2.813-5.625,3.75s-4.375,1.406-6.75,1.406
	c-2.5,0-4.781-0.469-6.844-1.406s-3.906-2.188-5.531-3.75s-2.875-3.406-3.75-5.531s-1.313-4.375-1.313-6.75s0.438-4.625,1.313-6.75
	s2.125-3.969,3.75-5.531s3.469-2.781,5.531-3.656S67.313,149.688,69.813,149.688z M147.813,150.063c2.375,0,4.656,0.438,6.844,1.313
	s4.063,2.094,5.625,3.656s2.813,3.406,3.75,5.531s1.406,4.375,1.406,6.75s-0.469,4.625-1.406,6.75s-2.188,3.969-3.75,5.531
	s-3.438,2.813-5.625,3.75s-4.469,1.406-6.844,1.406s-4.625-0.469-6.75-1.406s-3.969-2.188-5.531-3.75s-2.813-3.406-3.75-5.531
	s-1.406-4.375-1.406-6.75s0.469-4.625,1.406-6.75s2.188-3.969,3.75-5.531s3.406-2.781,5.531-3.656S145.438,150.063,147.813,150.063z
	 M179.313,43.563c3.5,0,6.219,0.469,8.156,1.406s3.313,2.094,4.125,3.469s1.188,2.844,1.125,4.406s-0.281,2.906-0.656,4.031
	s-1.156,3.438-2.344,6.938s-2.531,7.344-4.031,11.531s-2.969,8.344-4.406,12.469s-2.531,7.375-3.281,9.75
	c-1.625,5-3.688,8.469-6.188,10.406s-5.563,2.906-9.188,2.906h-6.375h-12.188h-15.938h-17.438h-46.5L67,127.75h94.5
	c6,0,9,2.563,9,7.688c0,2.5-0.594,4.656-1.781,6.469s-3.531,2.719-7.031,2.719h-9H135.25h-21.563H91.75h-18H63.438
	c-2.5,0-4.594-0.563-6.281-1.688s-3.094-2.594-4.219-4.406s-2.031-3.781-2.719-5.906s-1.219-4.125-1.594-6
	c-0.125-0.75-0.469-2.563-1.031-5.438s-1.25-6.469-2.063-10.781s-1.719-9.125-2.719-14.438s-2-10.656-3-16.031
	C37.438,67.313,34.75,53.25,31.75,37.75H17.688c-1.875,0-3.438-0.469-4.688-1.406s-2.281-2.063-3.094-3.375S8.531,30.25,8.219,28.75
	S7.75,25.875,7.75,24.625c0-2.5,0.844-4.563,2.531-6.188S14.25,16,17.125,16h4.125H25h4.688h6.375c2.5,0,4.5,0.375,6,1.125
	s2.688,1.688,3.563,2.813s1.5,2.313,1.875,3.563s0.688,2.313,0.938,3.188c0.25,1,0.5,2.406,0.75,4.219s0.5,3.656,0.75,5.531
	c0.375,2.25,0.75,4.625,1.125,7.125H179.313z"/>
</svg>
